<svg width="262" height="50" viewBox="0 0 262 50" fill="none" xmlns="http://www.w3.org/2000/svg">
<path d="M42.8125 49H34.3125V27.75C34.3125 27.1667 34.1979 26.6146 33.9688 26.0938C33.7604 25.5729 33.4583 25.1146 33.0625 24.7188C32.6667 24.3229 32.2083 24.0208 31.6875 23.8125C31.1667 23.5833 30.6146 23.4688 30.0312 23.4688C29.4479 23.4688 28.8958 23.5833 28.375 23.8125C27.875 24.0208 27.4271 24.3229 27.0312 24.7188C26.6562 25.1146 26.3542 25.5729 26.125 26.0938C25.9167 26.6146 25.8125 27.1667 25.8125 27.75V49H17.2812V27.75C17.2812 27.1667 17.1667 26.6146 16.9375 26.0938C16.7292 25.5729 16.4271 25.1146 16.0312 24.7188C15.6354 24.3229 15.1771 24.0208 14.6562 23.8125C14.1354 23.5833 13.5833 23.4688 13 23.4688C12.4167 23.4688 11.8646 23.5833 11.3438 23.8125C10.8438 24.0208 10.3958 24.3229 10 24.7188C9.625 25.1146 9.32292 25.5729 9.09375 26.0938C8.88542 26.6146 8.78125 27.1667 8.78125 27.75V49H0.25V15.5312H2.3125L4.625 18.0938C5.8125 17.0938 7.11458 16.3229 8.53125 15.7812C9.96875 15.2188 11.4583 14.9375 13 14.9375C14.5625 14.9375 16.0833 15.2292 17.5625 15.8125C19.0625 16.3958 20.375 17.4062 21.5 18.8438C22.0208 18.1354 22.6146 17.5312 23.2812 17.0312C23.9479 16.5312 24.6458 16.125 25.375 15.8125C26.125 15.5 26.8958 15.2812 27.6875 15.1562C28.4792 15.0104 29.2604 14.9375 30.0312 14.9375C31.8021 14.9375 33.4583 15.2708 35 15.9375C36.5625 16.6042 37.9167 17.5208 39.0625 18.6875C40.2292 19.8333 41.1458 21.1875 41.8125 22.75C42.4792 24.3125 42.8125 25.9792 42.8125 27.75V49ZM59.125 6.4375C59.125 7.22917 58.9688 7.96875 58.6562 8.65625C58.3646 9.34375 57.9583 9.94792 57.4375 10.4688C56.9167 10.9688 56.3021 11.375 55.5938 11.6875C54.9062 11.9792 54.1667 12.125 53.375 12.125C52.5833 12.125 51.8333 11.9792 51.125 11.6875C50.4375 11.375 49.8333 10.9688 49.3125 10.4688C48.8125 9.94792 48.4062 9.34375 48.0938 8.65625C47.8021 7.96875 47.6562 7.22917 47.6562 6.4375C47.6562 5.66667 47.8021 4.9375 48.0938 4.25C48.4062 3.54167 48.8125 2.9375 49.3125 2.4375C49.8333 1.91667 50.4375 1.51042 51.125 1.21875C51.8333 0.90625 52.5833 0.75 53.375 0.75C54.1667 0.75 54.9062 0.90625 55.5938 1.21875C56.3021 1.51042 56.9167 1.91667 57.4375 2.4375C57.9583 2.9375 58.3646 3.54167 58.6562 4.25C58.9688 4.9375 59.125 5.66667 59.125 6.4375ZM57.6562 49H49.0625V15.5312H57.6562V49ZM72.7188 49H64.1875V15.5312H66.25L69.0625 18.7812C70.4375 17.5312 71.9896 16.5729 73.7188 15.9062C75.4688 15.2188 77.2917 14.875 79.1875 14.875C81.2292 14.875 83.1562 15.2708 84.9688 16.0625C86.7812 16.8333 88.3646 17.9062 89.7188 19.2812C91.0729 20.6354 92.1354 22.2292 92.9062 24.0625C93.6979 25.875 94.0938 27.8125 94.0938 29.875V49H85.5625V29.875C85.5625 29 85.3958 28.1771 85.0625 27.4062C84.7292 26.6146 84.2708 25.9271 83.6875 25.3438C83.1042 24.7604 82.4271 24.3021 81.6562 23.9688C80.8854 23.6354 80.0625 23.4688 79.1875 23.4688C78.2917 23.4688 77.4479 23.6354 76.6562 23.9688C75.8646 24.3021 75.1771 24.7604 74.5938 25.3438C74.0104 25.9271 73.5521 26.6146 73.2188 27.4062C72.8854 28.1771 72.7188 29 72.7188 29.875V49ZM110.25 6.4375C110.25 7.22917 110.094 7.96875 109.781 8.65625C109.49 9.34375 109.083 9.94792 108.562 10.4688C108.042 10.9688 107.427 11.375 106.719 11.6875C106.031 11.9792 105.292 12.125 104.5 12.125C103.708 12.125 102.958 11.9792 102.25 11.6875C101.562 11.375 100.958 10.9688 100.438 10.4688C99.9375 9.94792 99.5312 9.34375 99.2188 8.65625C98.9271 7.96875 98.7812 7.22917 98.7812 6.4375C98.7812 5.66667 98.9271 4.9375 99.2188 4.25C99.5312 3.54167 99.9375 2.9375 100.438 2.4375C100.958 1.91667 101.562 1.51042 102.25 1.21875C102.958 0.90625 103.708 0.75 104.5 0.75C105.292 0.75 106.031 0.90625 106.719 1.21875C107.427 1.51042 108.042 1.91667 108.562 2.4375C109.083 2.9375 109.49 3.54167 109.781 4.25C110.094 4.9375 110.25 5.66667 110.25 6.4375ZM108.781 49H100.188V15.5312H108.781V49Z" fill="#5D5D5D"/>
<path d="M152.125 26.5938C152.125 28.6562 151.854 30.6458 151.312 32.5625C150.792 34.4583 150.042 36.2396 149.062 37.9062C148.083 39.5521 146.917 41.0625 145.562 42.4375C144.208 43.7917 142.698 44.9583 141.031 45.9375C139.365 46.9167 137.573 47.6771 135.656 48.2188C133.76 48.7396 131.781 49 129.719 49H116.219V4.1875H129.719C131.781 4.1875 133.76 4.45833 135.656 5C137.573 5.52083 139.365 6.27083 141.031 7.25C142.698 8.22917 144.208 9.40625 145.562 10.7812C146.917 12.1354 148.083 13.6458 149.062 15.3125C150.042 16.9583 150.792 18.7396 151.312 20.6562C151.854 22.5521 152.125 24.5312 152.125 26.5938ZM143.156 26.5938C143.156 24.7396 142.802 23 142.094 21.375C141.406 19.75 140.448 18.3333 139.219 17.125C138.01 15.8958 136.583 14.9271 134.938 14.2188C133.312 13.5104 131.573 13.1562 129.719 13.1562H125.25V40.0312H129.719C131.573 40.0312 133.312 39.6875 134.938 39C136.583 38.2917 138.01 37.3333 139.219 36.125C140.448 34.8958 141.406 33.4688 142.094 31.8438C142.802 30.1979 143.156 28.4479 143.156 26.5938ZM165.719 49H157.188V15.5312H159.25L162.062 19.5C163.438 18.25 165 17.2917 166.75 16.625C168.5 15.9375 170.312 15.5938 172.188 15.5938H179.719V24.0938H172.188C171.292 24.0938 170.448 24.2604 169.656 24.5938C168.865 24.9271 168.177 25.3854 167.594 25.9688C167.01 26.5521 166.552 27.2396 166.219 28.0312C165.885 28.8229 165.719 29.6667 165.719 30.5625V49ZM193.75 6.4375C193.75 7.22917 193.594 7.96875 193.281 8.65625C192.99 9.34375 192.583 9.94792 192.062 10.4688C191.542 10.9688 190.927 11.375 190.219 11.6875C189.531 11.9792 188.792 12.125 188 12.125C187.208 12.125 186.458 11.9792 185.75 11.6875C185.062 11.375 184.458 10.9688 183.938 10.4688C183.438 9.94792 183.031 9.34375 182.719 8.65625C182.427 7.96875 182.281 7.22917 182.281 6.4375C182.281 5.66667 182.427 4.9375 182.719 4.25C183.031 3.54167 183.438 2.9375 183.938 2.4375C184.458 1.91667 185.062 1.51042 185.75 1.21875C186.458 0.90625 187.208 0.75 188 0.75C188.792 0.75 189.531 0.90625 190.219 1.21875C190.927 1.51042 191.542 1.91667 192.062 2.4375C192.583 2.9375 192.99 3.54167 193.281 4.25C193.594 4.9375 193.75 5.66667 193.75 6.4375ZM192.281 49H183.688V15.5312H192.281V49ZM208.312 49L195.562 15.5312H205.281L212.594 36.4062L219.875 15.5312H229.625L216.875 49H208.312ZM245.188 40.8125C245.521 40.9167 245.854 40.9896 246.188 41.0312C246.521 41.0521 246.854 41.0625 247.188 41.0625C248.021 41.0625 248.823 40.9479 249.594 40.7188C250.365 40.4896 251.083 40.1667 251.75 39.75C252.438 39.3125 253.042 38.7917 253.562 38.1875C254.104 37.5625 254.542 36.875 254.875 36.125L261.125 42.4062C260.333 43.5312 259.417 44.5417 258.375 45.4375C257.354 46.3333 256.24 47.0938 255.031 47.7188C253.844 48.3438 252.583 48.8125 251.25 49.125C249.938 49.4583 248.583 49.625 247.188 49.625C244.833 49.625 242.615 49.1875 240.531 48.3125C238.469 47.4375 236.656 46.2188 235.094 44.6562C233.552 43.0938 232.333 41.2396 231.438 39.0938C230.542 36.9271 230.094 34.5521 230.094 31.9688C230.094 29.3229 230.542 26.9062 231.438 24.7188C232.333 22.5312 233.552 20.6667 235.094 19.125C236.656 17.5833 238.469 16.3854 240.531 15.5312C242.615 14.6771 244.833 14.25 247.188 14.25C248.583 14.25 249.948 14.4167 251.281 14.75C252.615 15.0833 253.875 15.5625 255.062 16.1875C256.271 16.8125 257.396 17.5833 258.438 18.5C259.479 19.3958 260.396 20.4062 261.188 21.5312L245.188 40.8125ZM249.562 23.2188C249.167 23.0729 248.771 22.9792 248.375 22.9375C248 22.8958 247.604 22.875 247.188 22.875C246.021 22.875 244.917 23.0938 243.875 23.5312C242.854 23.9479 241.958 24.5521 241.188 25.3438C240.438 26.1354 239.844 27.0938 239.406 28.2188C238.969 29.3229 238.75 30.5729 238.75 31.9688C238.75 32.2812 238.76 32.6354 238.781 33.0312C238.823 33.4271 238.875 33.8333 238.938 34.25C239.021 34.6458 239.115 35.0312 239.219 35.4062C239.323 35.7812 239.458 36.1146 239.625 36.4062L249.562 23.2188Z" fill="black"/>
</svg>
