<svg width="30" height="40" viewBox="0 0 30 40" fill="none" xmlns="http://www.w3.org/2000/svg">
<path d="M29 1V39H1V10.3837L9.44536 1H29Z" fill="white" stroke="black" stroke-width="2"/>
<line x1="2" y1="11" x2="12" y2="11" stroke="black" stroke-width="2"/>
<line x1="11" y1="2" x2="11" y2="12" stroke="black" stroke-width="2"/>
<rect x="6" y="28" width="5" height="2" fill="#45A732"/>
<rect x="12" y="28" width="6" height="2" fill="#45A732"/>
<rect x="19" y="28" width="5" height="2" fill="#45A732"/>
<rect x="6" y="24" width="5" height="2" fill="#45A732"/>
<rect x="12" y="24" width="6" height="2" fill="#45A732"/>
<rect x="19" y="24" width="5" height="2" fill="#45A732"/>
<rect x="6" y="20" width="5" height="2" fill="#45A732"/>
<rect x="12" y="20" width="6" height="2" fill="#45A732"/>
<rect x="19" y="20" width="5" height="2" fill="#45A732"/>
<rect x="6" y="16" width="5" height="2" fill="#45A732"/>
<rect x="12" y="16" width="6" height="2" fill="#45A732"/>
<rect x="19" y="16" width="5" height="2" fill="#45A732"/>
</svg>
