<svg width="30" height="40" viewBox="0 0 30 40" fill="none" xmlns="http://www.w3.org/2000/svg">
<path d="M29 1V39H1V10.3837L9.44536 1H29Z" fill="white" stroke="black" stroke-width="2"/>
<line x1="2" y1="11" x2="12" y2="11" stroke="black" stroke-width="2"/>
<line x1="11" y1="2" x2="11" y2="12" stroke="black" stroke-width="2"/>
<path d="M13 29L20 20L22 23V29H13Z" fill="white"/>
<circle cx="10" cy="20" r="2" fill="white"/>
<rect x="6" y="16" width="18" height="16" fill="#515151"/>
<rect x="7" y="17" width="2" height="2" fill="white"/>
<rect x="7" y="20" width="2" height="2" fill="white"/>
<rect x="7" y="23" width="2" height="2" fill="white"/>
<rect x="7" y="26" width="2" height="2" fill="white"/>
<rect x="7" y="29" width="2" height="2" fill="white"/>
<rect x="21" y="17" width="2" height="2" fill="white"/>
<rect x="21" y="20" width="2" height="2" fill="white"/>
<rect x="21" y="23" width="2" height="2" fill="white"/>
<rect x="21" y="26" width="2" height="2" fill="white"/>
<rect x="21" y="29" width="2" height="2" fill="white"/>
</svg>
